<svg id="Слой_1" data-name="Слой 1" xmlns="http://www.w3.org/2000/svg" viewBox="0 0 270.2 138.51">
  <defs>
    <style>
      .cls-1 {
        fill: #1d1d1b;
      }

      .cls-2 {
        fill: #233160;
      }
    </style>
  </defs>
  <title>Безымянный-1 [Восстановлен]</title>
  <g>
    <path class="cls-1" d="M65.17,32.56A32.11,32.11,0,0,1,64,41.2,33.3,33.3,0,0,1,60.73,49a31.89,31.89,0,0,1-5.1,6.61A33.22,33.22,0,0,1,49,60.71,32.58,32.58,0,0,1,24,64,32.85,32.85,0,0,1,1.16,41.2a32.38,32.38,0,0,1,3.3-25.07A33.22,33.22,0,0,1,9.58,9.54a31.89,31.89,0,0,1,6.61-5.1A33.3,33.3,0,0,1,24,1.16a32.79,32.79,0,0,1,17.29,0A32.59,32.59,0,0,1,49,4.44,33,33,0,0,1,60.73,16.13a32.41,32.41,0,0,1,4.44,16.43Zm-12.52,0a19.43,19.43,0,0,0-1.59-7.8A19.93,19.93,0,0,0,40.41,14.11a20,20,0,0,0-15.62,0,20.5,20.5,0,0,0-6.38,4.28,20.11,20.11,0,0,0-4.3,6.37,19.43,19.43,0,0,0-1.59,7.8,19.1,19.1,0,0,0,1.59,7.76A20.27,20.27,0,0,0,24.79,51a20.09,20.09,0,0,0,15.62,0,20.14,20.14,0,0,0,6.37-4.31,20.6,20.6,0,0,0,4.28-6.35A19.1,19.1,0,0,0,52.65,32.56Z"/>
    <path class="cls-1" d="M145.68,52.29a6.43,6.43,0,0,0,1.41.29,13,13,0,0,0,1.4.07,11.63,11.63,0,0,0,3.39-.49,12.16,12.16,0,0,0,3.05-1.38,11.51,11.51,0,0,0,4.37-5.08l8.79,8.84a23.58,23.58,0,0,1-3.84,4.26A24.19,24.19,0,0,1,159.54,62a23.6,23.6,0,0,1-5.31,2,24.37,24.37,0,0,1-5.74.68,23.8,23.8,0,0,1-9.34-1.85,23.54,23.54,0,0,1-7.64-5.14,24.06,24.06,0,0,1-5.17-7.84,25.85,25.85,0,0,1-1.89-10,26.7,26.7,0,0,1,1.89-10.2,23.14,23.14,0,0,1,12.81-12.92,24.23,24.23,0,0,1,20.44.93,24.45,24.45,0,0,1,8.59,7.51Zm6.15-24.74a7.18,7.18,0,0,0-1.65-.39,15.26,15.26,0,0,0-1.69-.09,12.06,12.06,0,0,0-4.64.9,11.14,11.14,0,0,0-3.77,2.57,12.17,12.17,0,0,0-2.53,4,14.34,14.34,0,0,0-.92,5.3c0,.44,0,.94.06,1.49s.12,1.12.22,1.69a15.37,15.37,0,0,0,.38,1.65,5.62,5.62,0,0,0,.57,1.41Z"/>
    <path class="cls-1" d="M186.2,63.81h-12V16.74h2.9l4,4.57a21.15,21.15,0,0,1,14.23-5.49,20.31,20.31,0,0,1,8.13,1.65A21.14,21.14,0,0,1,210.1,22a21.45,21.45,0,0,1,4.51,6.73,20.52,20.52,0,0,1,1.65,8.19v26.9h-12V36.91a9,9,0,0,0-.7-3.49,9.09,9.09,0,0,0-4.79-4.81,8.69,8.69,0,0,0-3.48-.7,9,9,0,0,0-8.39,5.51,8.77,8.77,0,0,0-.7,3.49Z"/>
  </g>
  <g>
    <path class="cls-2" d="M82.83,138.45H70.16l.12-122.63H95.5a24.65,24.65,0,0,1,6.68.9,25,25,0,0,1,6,2.55,25.43,25.43,0,0,1,9,9.07,25.54,25.54,0,0,1,2.55,6,25.15,25.15,0,0,1-1.08,16.45,25.29,25.29,0,0,1-13.42,13.43,24.43,24.43,0,0,1-9.78,2H82.89Zm.06-110V53.66H95.5a12.17,12.17,0,0,0,4.88-1,12.61,12.61,0,0,0,6.7-6.72,12.65,12.65,0,0,0,0-9.81,12.61,12.61,0,0,0-6.7-6.72,12.17,12.17,0,0,0-4.88-1Z"/>
    <path class="cls-2" d="M105.1,138.51h-12V91.44H96L100,97a21.25,21.25,0,0,1,14.24-5.49h10.59v12H114.2a9.06,9.06,0,0,0-9.1,9.1Z"/>
    <path class="cls-2" d="M174.44,113.56a25.34,25.34,0,0,1-1.89,9.82,24.84,24.84,0,0,1-5.14,7.87,24,24,0,0,1-7.63,5.22,23.77,23.77,0,0,1-18.72,0,24,24,0,0,1-12.81-13.09,25.34,25.34,0,0,1-1.89-9.82,25.68,25.68,0,0,1,1.89-9.93,23.88,23.88,0,0,1,12.81-13.1,23.31,23.31,0,0,1,9.34-1.89,24.55,24.55,0,0,1,9.38,1.78,22.75,22.75,0,0,1,7.63,5,24.18,24.18,0,0,1,5.14,7.87A26.62,26.62,0,0,1,174.44,113.56Zm-12.09,0a13.91,13.91,0,0,0-.94-5.25,12.57,12.57,0,0,0-2.57-4,11.36,11.36,0,0,0-3.8-2.59,12.41,12.41,0,0,0-9.28,0,11,11,0,0,0-3.78,2.59,12.29,12.29,0,0,0-2.52,4,14.11,14.11,0,0,0-.93,5.25,13.5,13.5,0,0,0,.93,5,12.55,12.55,0,0,0,2.52,4,11.75,11.75,0,0,0,3.78,2.71,11.08,11.08,0,0,0,4.64,1,11.73,11.73,0,0,0,8.44-3.52,12.2,12.2,0,0,0,2.57-4A14,14,0,0,0,162.35,113.56Z"/>
    <path class="cls-2" d="M195.25,138.51h-12V103.4h-5.85v-12h5.85V89.2A20.39,20.39,0,0,1,184.91,81a20.62,20.62,0,0,1,4.52-6.66,21.69,21.69,0,0,1,6.7-4.48,20.44,20.44,0,0,1,8.18-1.65h9v12h-9a9.32,9.32,0,0,0-3.58.68,8.81,8.81,0,0,0-2.86,1.89,9.08,9.08,0,0,0-2.62,6.44v2.24H210v12H195.25Z"/>
    <path class="cls-2" d="M231,78.65a7.54,7.54,0,0,1-.64,3.12,8,8,0,0,1-1.73,2.53A8.58,8.58,0,0,1,226,86a8.17,8.17,0,0,1-6.29,0,8.25,8.25,0,0,1-2.55-1.72,8.07,8.07,0,0,1-1.71-2.53,7.85,7.85,0,0,1,0-6.21A8,8,0,0,1,217.19,73a8.25,8.25,0,0,1,2.55-1.72,8.17,8.17,0,0,1,6.29,0A8.58,8.58,0,0,1,228.6,73a7.94,7.94,0,0,1,1.73,2.55A7.6,7.6,0,0,1,231,78.65Zm-2.07,59.86H216.82V91.44H228.9Z"/>
    <path class="cls-2" d="M261.1,138.51a20.39,20.39,0,0,1-8.17-1.65,21.31,21.31,0,0,1-11.23-11.23,20.39,20.39,0,0,1-1.65-8.17v-14h-5.84v-12h5.84V72.72h12V91.53H270.2v12H252v14a8.91,8.91,0,0,0,.7,3.54,9.12,9.12,0,0,0,1.93,2.87,9.28,9.28,0,0,0,2.9,2,8.92,8.92,0,0,0,3.56.72h9.1v12Z"/>
  </g>
</svg>
